<svg width="131" height="31" viewBox="0 0 131 31" fill="none" xmlns="http://www.w3.org/2000/svg">
<path d="M126.931 20.4861C126.316 20.4861 125.76 20.4271 125.264 20.3092C124.773 20.1912 124.28 20.0204 123.783 19.7969L123.988 17.8224C124.466 18.1018 124.935 18.3285 125.394 18.5023C125.86 18.67 126.347 18.7538 126.856 18.7538C127.316 18.7538 127.667 18.6793 127.909 18.5303C128.151 18.3812 128.272 18.1453 128.272 17.8224C128.272 17.5803 128.207 17.3816 128.076 17.2263C127.952 17.0711 127.763 16.9314 127.508 16.8072C127.254 16.683 126.937 16.5495 126.558 16.4067C125.987 16.1956 125.5 15.9659 125.096 15.7175C124.699 15.4692 124.394 15.1711 124.183 14.8234C123.978 14.4695 123.876 14.0349 123.876 13.5195C123.876 12.9855 124.016 12.5136 124.295 12.1038C124.575 11.694 124.972 11.3743 125.487 11.1445C126.003 10.9148 126.614 10.7999 127.322 10.7999C127.912 10.7999 128.44 10.8651 128.905 10.9955C129.377 11.1259 129.812 11.3029 130.209 11.5264L130.004 13.5009C129.588 13.2091 129.169 12.97 128.747 12.7837C128.325 12.5913 127.862 12.495 127.359 12.495C126.962 12.495 126.655 12.5757 126.437 12.7372C126.22 12.8986 126.111 13.1283 126.111 13.4264C126.111 13.7865 126.263 14.0566 126.568 14.2367C126.872 14.4167 127.359 14.6371 128.03 14.8979C128.465 15.0656 128.84 15.2394 129.157 15.4195C129.48 15.5996 129.747 15.7982 129.958 16.0156C130.169 16.2329 130.324 16.4812 130.424 16.7607C130.529 17.0339 130.582 17.3505 130.582 17.7106C130.582 18.3005 130.439 18.8035 130.153 19.2195C129.874 19.6293 129.461 19.9428 128.915 20.1601C128.375 20.3775 127.713 20.4861 126.931 20.4861Z" fill="white"/>
<path d="M119.189 20.4862C118.065 20.4862 117.127 20.2626 116.376 19.8156C115.631 19.3623 115.072 18.7662 114.699 18.0274C114.327 17.2823 114.141 16.4689 114.141 15.5872C114.141 14.7365 114.314 13.9511 114.662 13.2308C115.016 12.5106 115.531 11.9331 116.208 11.4985C116.885 11.0576 117.711 10.8372 118.686 10.8372C119.58 10.8372 120.325 11.0204 120.921 11.3867C121.517 11.7531 121.964 12.2436 122.262 12.8583C122.56 13.4668 122.709 14.1405 122.709 14.8793C122.709 15.0842 122.697 15.2922 122.672 15.5034C122.647 15.7083 122.61 15.9225 122.56 16.146H116.543C116.63 16.7234 116.81 17.1922 117.084 17.5524C117.363 17.9063 117.701 18.1671 118.099 18.3347C118.502 18.5023 118.934 18.5862 119.393 18.5862C119.934 18.5862 120.437 18.5179 120.902 18.3813C121.368 18.2385 121.796 18.0522 122.187 17.8225L122.299 19.7783C121.945 19.9646 121.504 20.1291 120.977 20.2719C120.449 20.4147 119.853 20.4862 119.189 20.4862ZM116.599 14.5813H120.362C120.362 14.3019 120.309 14.0225 120.204 13.7431C120.098 13.4575 119.921 13.2184 119.673 13.0259C119.431 12.8334 119.102 12.7372 118.686 12.7372C118.089 12.7372 117.621 12.9111 117.279 13.2588C116.938 13.6065 116.711 14.0473 116.599 14.5813Z" fill="white"/>
<path d="M104.422 20.2999V10.9862H106.582L106.675 12.7186L106.135 12.0107C106.489 11.7127 106.911 11.4426 107.402 11.2005C107.892 10.9583 108.464 10.8372 109.116 10.8372C110.308 10.8372 111.193 11.2346 111.77 12.0294C112.347 12.8179 112.636 13.8424 112.636 15.1029V20.2999H110.326V15.2891C110.326 14.4199 110.181 13.7772 109.889 13.3612C109.603 12.9452 109.134 12.7372 108.482 12.7372C107.955 12.7372 107.523 12.8676 107.188 13.1284C106.852 13.3829 106.558 13.7244 106.303 14.1529L106.731 13.0166V20.2999H104.422Z" fill="white"/>
<path d="M97.9996 20.4861C97.031 20.4861 96.258 20.2936 95.6805 19.9087C95.1031 19.5237 94.6871 18.9959 94.4325 18.3254C94.1779 17.6486 94.0507 16.8724 94.0507 15.9969V10.9862H96.3604V15.9969C96.3604 16.86 96.5033 17.5027 96.7889 17.9249C97.0807 18.3409 97.5526 18.5489 98.2045 18.5489C98.7261 18.5489 99.1576 18.4247 99.4991 18.1763C99.8468 17.928 100.136 17.5803 100.365 17.1332L99.9555 18.3067V10.9862H102.265V20.2998H100.105L99.9928 18.6793L100.496 19.3312C100.272 19.6168 99.9183 19.8807 99.4339 20.1229C98.9558 20.365 98.4777 20.4861 97.9996 20.4861Z" fill="white"/>
<path d="M88.2267 20.2998V9.57053H84.5385V7.26074H94.2992V9.57053H90.611V20.2998H88.2267Z" fill="white"/>
<path d="M77.6078 24.8077L79.6754 19.6851L75.8009 10.9862H78.3715L80.7558 16.9842L83.1773 10.9862H85.7479L79.9175 24.8077H77.6078Z" fill="white"/>
<path d="M73.4958 20.4861C72.9121 20.4861 72.4371 20.3682 72.0708 20.1322C71.7045 19.8901 71.4344 19.5827 71.2605 19.2102C71.0867 18.8376 70.9997 18.4496 70.9997 18.046V12.8862H69.6772L69.8821 10.9862H70.9997V8.93722L73.3095 8.69507V10.9862H75.3585V12.8862H73.3095V17.096C73.3095 17.5679 73.3374 17.9094 73.3933 18.1205C73.4492 18.3254 73.5765 18.4558 73.7752 18.5116C73.9739 18.5613 74.2905 18.5862 74.7252 18.5862H75.3585L75.1536 20.4861H73.4958Z" fill="white"/>
<path d="M67.0926 20.4861C66.509 20.4861 66.034 20.3682 65.6677 20.1322C65.3013 19.8901 65.0312 19.5827 64.8574 19.2102C64.6835 18.8376 64.5966 18.4496 64.5966 18.046V12.8862H63.274L63.4789 10.9862H64.5966V8.93722L66.9064 8.69507V10.9862H68.9554V12.8862H66.9064V17.096C66.9064 17.5679 66.9343 17.9094 66.9902 18.1205C67.0461 18.3254 67.1734 18.4558 67.3721 18.5116C67.5707 18.5613 67.8874 18.5862 68.322 18.5862H68.9554L68.7505 20.4861H67.0926Z" fill="white"/>
<path d="M57.7705 20.4861C56.7585 20.4861 55.8954 20.2657 55.1814 19.8248C54.4673 19.384 53.9209 18.7972 53.5422 18.0646C53.1696 17.3319 52.9833 16.5309 52.9833 15.6616C52.9833 14.7862 53.1696 13.979 53.5422 13.2401C53.9209 12.5012 54.4673 11.9114 55.1814 11.4705C55.8954 11.0235 56.7585 10.7999 57.7705 10.7999C58.7826 10.7999 59.6457 11.0235 60.3597 11.4705C61.0738 11.9114 61.6171 12.5012 61.9896 13.2401C62.3684 13.979 62.5578 14.7862 62.5578 15.6616C62.5578 16.5309 62.3684 17.3319 61.9896 18.0646C61.6171 18.7972 61.0738 19.384 60.3597 19.8248C59.6457 20.2657 58.7826 20.4861 57.7705 20.4861ZM57.7705 18.5861C58.5467 18.5861 59.1428 18.316 59.5588 17.7758C59.981 17.2294 60.1921 16.5247 60.1921 15.6616C60.1921 14.7862 59.981 14.0752 59.5588 13.5288C59.1428 12.9762 58.5467 12.6999 57.7705 12.6999C57.0006 12.6999 56.4045 12.9762 55.9823 13.5288C55.5601 14.0752 55.349 14.7862 55.349 15.6616C55.349 16.5247 55.5601 17.2294 55.9823 17.7758C56.4045 18.316 57.0006 18.5861 57.7705 18.5861Z" fill="white"/>
<path d="M42.8824 24.8077V10.9862H44.7451L45.1922 12.5323L44.503 12.2901C44.9314 11.8493 45.3971 11.4985 45.9 11.2377C46.4029 10.9707 47.0176 10.8372 47.7441 10.8372C48.6568 10.8372 49.4237 11.0576 50.0446 11.4985C50.6655 11.9393 51.1343 12.5261 51.4509 13.2588C51.7738 13.9914 51.9352 14.7924 51.9352 15.6617C51.9352 16.531 51.7738 17.3319 51.4509 18.0646C51.1343 18.7973 50.6655 19.384 50.0446 19.8249C49.4237 20.2657 48.6568 20.4862 47.7441 20.4862C47.0176 20.4862 46.4278 20.3868 45.9745 20.1881C45.5213 19.9894 45.0618 19.6728 44.5961 19.2381L45.1922 18.7724V24.8077H42.8824ZM47.3902 18.5862C48.0794 18.5862 48.6134 18.3161 48.9921 17.7759C49.3771 17.2295 49.5696 16.5248 49.5696 15.6617C49.5696 14.7924 49.3771 14.0877 48.9921 13.5475C48.6134 13.0073 48.0794 12.7372 47.3902 12.7372C46.8562 12.7372 46.4185 12.8614 46.077 13.1097C45.7355 13.3581 45.484 13.7027 45.3226 14.1436C45.1611 14.5782 45.0804 15.0842 45.0804 15.6617C45.0804 16.2391 45.1611 16.7483 45.3226 17.1891C45.484 17.6238 45.7355 17.9653 46.077 18.2136C46.4185 18.462 46.8562 18.5862 47.3902 18.5862Z" fill="white"/>
<path d="M36.3215 20.5607C35.7938 20.5607 35.2505 20.5079 34.6916 20.4023C34.1328 20.303 33.6144 20.1819 33.1363 20.0391C32.6582 19.8901 32.2794 19.7473 32 19.6107L32.2794 17.0774C32.714 17.2885 33.1673 17.4841 33.6392 17.6641C34.1111 17.8442 34.5954 17.9901 35.0921 18.1019C35.5889 18.2136 36.0918 18.2695 36.6009 18.2695C37.2343 18.2695 37.7434 18.1453 38.1284 17.897C38.5133 17.6486 38.7058 17.2698 38.7058 16.7607C38.7058 16.3695 38.5972 16.056 38.3798 15.82C38.1625 15.5779 37.8303 15.3637 37.3833 15.1774C36.9362 14.9849 36.365 14.7676 35.6696 14.5254C34.9742 14.2833 34.3501 14.0101 33.7975 13.7058C33.2449 13.3954 32.8072 13.0042 32.4843 12.5323C32.1614 12.0604 32 11.4581 32 10.7255C32 10.0052 32.177 9.36567 32.5309 8.80685C32.8848 8.24182 33.4126 7.80097 34.1142 7.48431C34.822 7.16144 35.7006 7 36.75 7C37.5447 7 38.3022 7.09003 39.0225 7.2701C39.7427 7.44395 40.3574 7.63333 40.8666 7.83823L40.6244 10.2784C39.8918 9.94932 39.2025 9.70096 38.5568 9.53331C37.9173 9.35946 37.2653 9.27253 36.6009 9.27253C35.9055 9.27253 35.3684 9.3874 34.9897 9.61713C34.6109 9.84687 34.4215 10.1915 34.4215 10.6509C34.4215 11.0173 34.5271 11.3122 34.7382 11.5357C34.9493 11.7593 35.2505 11.9518 35.6416 12.1132C36.0328 12.2684 36.5016 12.433 37.048 12.6068C37.9918 12.9048 38.7834 13.2339 39.423 13.5941C40.0687 13.948 40.553 14.3795 40.8759 14.8887C41.205 15.3916 41.3695 16.0156 41.3695 16.7607C41.3695 17.1332 41.3105 17.5399 41.1926 17.9808C41.0746 18.4154 40.8418 18.8283 40.494 19.2195C40.1463 19.6107 39.6372 19.9335 38.9666 20.1881C38.3022 20.4365 37.4205 20.5607 36.3215 20.5607Z" fill="white"/>
<path d="M0 6.90856V24.0914C0 27.1663 3.32482 29.0913 5.99148 27.5604L20.9572 18.969C23.6352 17.4316 23.6352 13.5684 20.9572 12.031L5.99147 3.43955C3.32482 1.90869 0 3.83373 0 6.90856Z" fill="#3BDAD3"/>
</svg>
